0 FILE brougham_exact_model.ldr
0 Victorian Era Horse-Drawn Brougham
0 !LICENSE Redistributable under CCAL version 2.0 : see CAreadme.txt
0 // Piece-level reconstruction from the 48 PDF instruction steps
0 STEP // PDF 1
0 // s01-p001
1 0 0 0 -40 1 0 0 0 1 0 -0 0 1 3031.dat
0 STEP // PDF 2
0 // s02-p002
1 0 0 -24 -70 1 0 0 0 1 0 -0 0 1 3010.dat
0 STEP // PDF 3
0 // s03-p003
1 0 -20 -32 -50 0 0 1 0 1 0 -1 0 0 3021.dat
0 // s03-p004
1 0 20 -32 -50 0 0 1 0 1 0 -1 0 0 3021.dat
0 STEP // PDF 4
0 // s04-p005
1 0 0 -56 -70 1 0 0 0 1 0 -0 0 1 3004.dat
0 // s04-p006
1 0 -30 -56 -50 0 0 1 0 1 0 -1 0 0 3622.dat
0 // s04-p007
1 0 30 -56 -50 0 0 1 0 1 0 -1 0 0 3622.dat
0 STEP // PDF 5
0 // s05-p008
1 47 0 -128 -70 1 0 0 0 1 0 -0 0 1 51266.dat
0 // s05-p009
1 0 0 -128 -70 1 0 0 0 1 0 -0 0 1 51239.dat
0 STEP // PDF 6
0 // s06-p010
1 0 -30 -128 -30 0 0 1 0 1 0 -1 0 0 2362b.dat
0 // s06-p011
1 0 30 -128 -30 -0 0 -1 0 1 0 1 0 -0 2362b.dat
0 STEP // PDF 7
0 // s07-p012
1 0 0 0 40 1 0 0 0 1 0 -0 0 1 3031.dat
0 STEP // PDF 8
0 // s08-p013
1 0 -30 -48 30 1 0 0 0 1 0 -0 0 1 88292.dat
0 // s08-p014
1 0 30 -48 30 1 0 0 0 1 0 -0 0 1 88292.dat
0 STEP // PDF 9
0 // s09-p015
1 0 -30 -56 50 0 0 1 0 1 0 -1 0 0 3023.dat
0 // s09-p016
1 0 30 -56 50 0 0 1 0 1 0 -1 0 0 3023.dat
0 STEP // PDF 10
0 // s10-p017
1 0 0 -24 70 1 0 0 0 1 0 -0 0 1 3747b.dat
0 STEP // PDF 11
0 // s11-p018
1 0 -10 -48 30 1 0 0 0 1 0 -0 0 1 3005.dat
0 // s11-p019
1 0 10 -48 30 1 0 0 0 1 0 -0 0 1 3005.dat
0 STEP // PDF 12
0 // s12-p020
1 0 0 -56 50 1 0 0 0 1 0 -0 0 1 3021.dat
0 STEP // PDF 13
0 // s13-p021
1 47 0 -128 10 1 0 0 0 1 0 -0 0 1 51266.dat
0 // s13-p022
1 0 0 -128 10 1 0 0 0 1 0 -0 0 1 51239.dat
0 STEP // PDF 15
0 // s15-p023
1 0 0 -64 60 1 0 0 0 1 0 -0 0 1 3020.dat
0 // s15-p024
1 0 0 -72 60 1 0 0 0 1 0 -0 0 1 3020.dat
0 STEP // PDF 16
0 // s16-p025
1 0 0 -80 60 1 0 0 0 1 0 -0 0 1 3709b.dat
0 STEP // PDF 17
0 // s17-p026
1 0 -20 -88 50 1 0 0 0 1 0 -0 0 1 48336.dat
0 // s17-p027
1 0 20 -88 70 -1 0 0 0 1 0 -0 0 -1 48336.dat
0 STEP // PDF 18
0 // s18-p028
1 0 -20 -88 70 -1 0 0 0 1 0 -0 0 -1 54200.dat
0 // s18-p029
1 0 20 -88 50 -1 0 0 0 1 0 -0 0 -1 54200.dat
0 STEP // PDF 19
0 // s19-p030
1 0 -20 -88 50 1 0 0 0 1 0 -0 0 1 3024.dat
0 // s19-p031
1 0 20 -88 70 1 0 0 0 1 0 -0 0 1 3024.dat
0 STEP // PDF 20
0 // s20-p032
1 0 -20 -96 50 1 0 0 0 1 0 -0 0 1 3070.dat
0 // s20-p033
1 0 20 -96 70 1 0 0 0 1 0 -0 0 1 3070.dat
0 STEP // PDF 21
0 // s21-p034
1 0 0 -48 90 0 0 1 0 1 0 -1 0 0 3021.dat
0 STEP // PDF 22
0 // s22-p035
1 0 -10 -56 100 0 0 1 0 1 0 -1 0 0 3023.dat
0 // s22-p036
1 0 -10 -56 70 0 0 1 0 1 0 -1 0 0 25269.dat
0 // s22-p037
1 0 10 -56 100 0 0 1 0 1 0 -1 0 0 3023.dat
0 // s22-p038
1 0 10 -56 70 -1 0 0 0 1 0 -0 0 -1 25269.dat
0 STEP // PDF 23
0 // s23-p039
1 0 0 -64 90 0 0 1 0 1 0 -1 0 0 3021.dat
0 STEP // PDF 24
0 // s24-p040
1 0 0 -72 110 -1 0 0 0 1 0 -0 0 -1 99207.dat
0 STEP // PDF 25
0 // s25-p041 vertical spacer on the driver-box bracket
1 0 0 -88 136 1 0 0 0 0 -1 0 1 0 3023.dat
0 // s25-p042 vertical curved splash board across the carriage
1 0 0 -88 152 1 0 0 0 0 -1 0 1 0 15068.dat
0 STEP // PDF 26
0 // s26-p043
1 0 -10 -80 70 1 0 0 0 1 0 -0 0 1 3070.dat
0 // s26-p044
1 0 10 -80 70 1 0 0 0 1 0 -0 0 1 3070.dat
0 STEP // PDF 28
0 // s28-p045
1 0 0 32 70 1 0 0 0 1 0 -0 0 1 2926.dat
0 // s28-p046
1 70 -50 37 70 0 0 -1 0 1 0 1 0 0 4489b.dat
0 // s28-p047
1 70 50 37 70 0 0 1 0 1 0 -1 0 0 4489b.dat
0 STEP // PDF 29
0 // s29-p048
1 0 0 8 70 0 0 1 0 1 0 -1 0 0 30236.dat
0 STEP // PDF 30
0 // s30-p049
1 0 0 0 70 0 0 1 0 1 0 -1 0 0 11476.dat
0 STEP // PDF 31
0 // s31-p050 large local -Z end is centered on the front axle
1 0 0 -16 130 1 0 0 0 1 0 -0 0 1 2397.dat
0 STEP // PDF 32
0 // s32-p051
1 0 0 0 70 1 0 0 0 1 0 -0 0 1 2460.dat
0 STEP // PDF 34
0 // s34-p052
1 0 0 8 -70 1 0 0 0 1 0 -0 0 1 3010.dat
0 STEP // PDF 35
0 // s35-p053
1 0 0 32 -70 1 0 0 0 1 0 -0 0 1 2926.dat
0 // s35-p054
1 70 -50 37 -70 0 0 -1 0 1 0 1 0 0 4489b.dat
0 // s35-p055
1 70 50 37 -70 0 0 1 0 1 0 -1 0 0 4489b.dat
0 STEP // PDF 36
0 // s36-p056
1 320 0 -64 -30 0 0 1 0 1 0 -1 0 0 3023.dat
0 // s36-p057
1 320 0 -64 -30 -1 0 0 0 1 0 -0 0 -1 15068.dat
0 STEP // PDF 38
0 // s38-p058
1 0 -40 -56 -50 1 0 0 0 1 0 -0 0 1 3188.dat
0 // s38-p059
1 0 40 -56 -50 1 0 0 0 1 0 -0 0 1 3189.dat
0 STEP // PDF 39
0 // s39-p060
1 47 -40 -128 -30 0 0 1 0 1 0 -1 0 0 60603.dat
0 // s39-p061
1 0 -40 -128 -30 0 0 1 0 1 0 -1 0 0 60594.dat
0 // s39-p062
1 47 40 -128 -30 -0 0 -1 0 1 0 1 0 -0 60603.dat
0 // s39-p063
1 0 40 -128 -30 -0 0 -1 0 1 0 1 0 -0 60594.dat
0 STEP // PDF 41
0 // s41-p064
1 0 -40 -136 -30 0 0 1 0 1 0 -1 0 0 41740.dat
0 // s41-p065
1 0 40 -136 -30 0 0 1 0 1 0 -1 0 0 41740.dat
0 // s41-p066
1 0 0 -136 -70 1 0 0 0 1 0 -0 0 1 3069.dat
0 // s41-p067
1 0 -20 -136 10 1 0 0 0 1 0 -0 0 1 3069.dat
0 // s41-p068
1 0 20 -136 10 1 0 0 0 1 0 -0 0 1 3069.dat
0 STEP // PDF 42
0 // s42-p069
1 0 0 -144 20 1 0 0 0 1 0 -0 0 1 3023.dat
0 // s42-p070
1 0 -30 -144 20 1 0 0 0 1 0 -0 0 1 2555.dat
0 // s42-p071
1 0 30 -144 20 1 0 0 0 1 0 -0 0 1 2555.dat
0 STEP // PDF 43
0 // s43-p072
1 0 0 -152 20 1 0 0 0 1 0 -0 0 1 3023.dat
0 // s43-p073
1 0 0 -152 20 0 0 1 0 1 0 -1 0 0 93273.dat
0 STEP // PDF 44
0 // s44-p074
1 0 -50 -144 10 0 0 1 0 1 0 -1 0 0 36840.dat
0 // s44-p075
1 0 50 -144 10 -0 0 -1 0 1 0 1 0 -0 36840.dat
0 STEP // PDF 45
0 // s45-p076
1 46 -55 -126 10 1 0 0 0 1 0 -0 0 1 4589.dat
0 // s45-p077
1 0 -55 -144 10 1 0 0 0 1 0 -0 0 1 37776.dat
0 // s45-p078
1 46 55 -126 10 1 0 0 0 1 0 -0 0 1 4589.dat
0 // s45-p079
1 0 55 -144 10 1 0 0 0 1 0 -0 0 1 37776.dat
0 STEP // PDF 47
0 // s47-p080 4x6 roof plate seated directly on the step-41 side rails
1 0 0 -144 -30 0 0 1 0 1 0 -1 0 0 3032.dat
0 STEP // PDF 48
0 // s48-p081 printed horse; official-library fallback geometry is 4493c01
1 15 0 22 180 -1 0 0 0 1 0 -0 0 -1 4493c01.dat
0 // s48-p082 1x2 brick attached only to the two horse-back studs
1 15 0 -2 180 1 0 0 0 1 0 -0 0 1 3004.dat
