0 FILE brougham_exact_draft.ldr
0 Victorian Era Horse-Drawn Brougham
0 !LICENSE Redistributable under CCAL version 2.0 : see CAreadme.txt
0 // DRAFT: transforms require render-to-PDF verification
0 STEP // PDF 1 s01-p001
1 0 0 0 0 1 0 0 0 1 0 -0 0 1 3031.dat
0 STEP // PDF 2 s02-p002
1 0 0 -8 -30 0 0 1 0 1 0 -1 0 0 3010.dat
0 STEP // PDF 3 s03-p003
1 0 -20 -32 -10 1 0 0 0 1 0 -0 0 1 3021.dat
0 STEP // PDF 3 s03-p004
1 0 20 -32 -10 1 0 0 0 1 0 -0 0 1 3021.dat
0 STEP // PDF 4 s04-p005
1 0 0 -40 -30 0 0 1 0 1 0 -1 0 0 3004.dat
0 STEP // PDF 4 s04-p006
1 0 -30 -40 -10 1 0 0 0 1 0 -0 0 1 3622.dat
0 STEP // PDF 4 s04-p007
1 0 30 -40 -10 1 0 0 0 1 0 -0 0 1 3622.dat
0 STEP // PDF 5 s05-p008
1 47 0 -64 -30 0 0 1 0 1 0 -1 0 0 51266.dat
0 STEP // PDF 5 s05-p009
1 0 0 -64 -30 0 0 1 0 1 0 -1 0 0 51239.dat
0 STEP // PDF 6 s06-p010
1 0 -30 -64 10 1 0 0 0 1 0 -0 0 1 2362b.dat
0 STEP // PDF 6 s06-p011
1 0 30 -64 10 1 0 0 0 1 0 -0 0 1 2362b.dat
0 STEP // PDF 7 s07-p012
1 0 0 0 80 1 0 0 0 1 0 -0 0 1 3031.dat
0 STEP // PDF 8 s08-p013
1 0 -30 -8 90 1 0 0 0 1 0 -0 0 1 88292.dat
0 STEP // PDF 8 s08-p014
1 0 30 -8 90 1 0 0 0 1 0 -0 0 1 88292.dat
0 STEP // PDF 9 s09-p015
1 0 -30 -32 90 1 0 0 0 1 0 -0 0 1 3023.dat
0 STEP // PDF 9 s09-p016
1 0 30 -32 90 1 0 0 0 1 0 -0 0 1 3023.dat
0 STEP // PDF 10 s10-p017
1 0 0 -8 90 1 0 0 0 1 0 -0 0 1 3747b.dat
0 STEP // PDF 11 s11-p018
1 0 -30 -32 60 1 0 0 0 1 0 -0 0 1 3005.dat
0 STEP // PDF 11 s11-p019
1 0 30 -32 60 1 0 0 0 1 0 -0 0 1 3005.dat
0 STEP // PDF 12 s12-p020
1 0 0 -32 90 1 0 0 0 1 0 -0 0 1 3021.dat
0 STEP // PDF 13 s13-p021
1 47 0 -64 50 0 0 1 0 1 0 -1 0 0 51266.dat
0 STEP // PDF 13 s13-p022
1 0 0 -64 50 0 0 1 0 1 0 -1 0 0 51239.dat
0 STEP // PDF 15 s15-p023
1 0 -20 -40 80 1 0 0 0 1 0 -0 0 1 3020.dat
0 STEP // PDF 15 s15-p024
1 0 20 -40 80 1 0 0 0 1 0 -0 0 1 3020.dat
0 STEP // PDF 16 s16-p025
1 0 0 -48 80 0 0 1 0 1 0 -1 0 0 3709b.dat
0 STEP // PDF 17 s17-p026
1 0 -20 -56 90 0 0 1 0 1 0 -1 0 0 48336.dat
0 STEP // PDF 17 s17-p027
1 0 20 -56 90 0 0 1 0 1 0 -1 0 0 48336.dat
0 STEP // PDF 18 s18-p028
1 0 -20 -64 86 1 0 0 0 1 0 -0 0 1 54200.dat
0 STEP // PDF 18 s18-p029
1 0 20 -64 86 1 0 0 0 1 0 -0 0 1 54200.dat
0 STEP // PDF 19 s19-p030
1 0 -20 -64 66 1 0 0 0 1 0 -0 0 1 3024.dat
0 STEP // PDF 19 s19-p031
1 0 20 -64 66 1 0 0 0 1 0 -0 0 1 3024.dat
0 STEP // PDF 20 s20-p032
1 0 -20 -72 66 1 0 0 0 1 0 -0 0 1 3070.dat
0 STEP // PDF 20 s20-p033
1 0 20 -72 66 1 0 0 0 1 0 -0 0 1 3070.dat
0 STEP // PDF 21 s21-p034
1 0 0 -8 140 1 0 0 0 1 0 -0 0 1 3021.dat
0 STEP // PDF 22 s22-p035
1 0 -10 -16 120 1 0 0 0 1 0 -0 0 1 25269.dat
0 STEP // PDF 22 s22-p036
1 0 -10 -16 150 1 0 0 0 1 0 -0 0 1 3023.dat
0 STEP // PDF 22 s22-p037
1 0 10 -16 120 0 0 1 0 1 0 -1 0 0 25269.dat
0 STEP // PDF 22 s22-p038
1 0 10 -16 150 1 0 0 0 1 0 -0 0 1 3023.dat
0 STEP // PDF 23 s23-p039
1 0 0 -24 140 1 0 0 0 1 0 -0 0 1 3021.dat
0 STEP // PDF 24 s24-p040
1 0 0 -32 150 0 0 1 0 1 0 -1 0 0 99207.dat
0 STEP // PDF 25 s25-p041
1 0 0 -32 150 0 0 1 0 1 0 -1 0 0 3023.dat
0 STEP // PDF 25 s25-p042
1 0 0 -40 150 0 0 1 0 1 0 -1 0 0 15068.dat
0 STEP // PDF 26 s26-p043
1 0 -10 -32 120 1 0 0 0 1 0 -0 0 1 3070.dat
0 STEP // PDF 26 s26-p044
1 0 10 -32 120 1 0 0 0 1 0 -0 0 1 3070.dat
0 STEP // PDF 28 s28-p045
1 0 0 24 90 0 0 1 0 1 0 -1 0 0 2926.dat
0 STEP // PDF 28 s28-p046
1 70 -60 24 90 1 0 0 0 0 -1 0 1 0 4489b.dat
0 STEP // PDF 28 s28-p047
1 70 60 24 90 1 0 0 0 0 -1 0 1 0 4489b.dat
0 STEP // PDF 29 s29-p048
1 0 0 8 90 0 0 1 0 1 0 -1 0 0 30236.dat
0 STEP // PDF 30 s30-p049
1 0 0 -16 110 0 0 1 0 1 0 -1 0 0 11476.dat
0 STEP // PDF 31 s31-p050
1 0 0 -16 200 1 0 0 0 1 0 -0 0 1 2397.dat
0 STEP // PDF 32 s32-p051
1 0 0 -16 90 1 0 0 0 1 0 -0 0 1 2460.dat
0 STEP // PDF 34 s34-p052
1 0 0 8 -10 0 0 1 0 1 0 -1 0 0 3010.dat
0 STEP // PDF 35 s35-p053
1 0 0 24 -10 0 0 1 0 1 0 -1 0 0 2926.dat
0 STEP // PDF 35 s35-p054
1 70 -60 24 -10 1 0 0 0 0 -1 0 1 0 4489b.dat
0 STEP // PDF 35 s35-p055
1 70 60 24 -10 1 0 0 0 0 -1 0 1 0 4489b.dat
0 STEP // PDF 36 s36-p056
1 320 0 -40 0 0 0 1 0 1 0 -1 0 0 3023.dat
0 STEP // PDF 36 s36-p057
1 320 0 -48 0 0 0 1 0 1 0 -1 0 0 15068.dat
0 STEP // PDF 38 s38-p058
1 0 -31 -40 10 0 0 1 0 1 0 -1 0 0 3188.dat
0 STEP // PDF 38 s38-p059
1 0 31 -40 10 -0 0 -1 0 1 0 1 0 -0 3189.dat
0 STEP // PDF 39 s39-p060
1 47 -31 -88 10 0 0 1 0 1 0 -1 0 0 60603.dat
0 STEP // PDF 39 s39-p061
1 0 -31 -88 10 0 0 1 0 1 0 -1 0 0 60594.dat
0 STEP // PDF 39 s39-p062
1 47 31 -88 10 -0 0 -1 0 1 0 1 0 -0 60603.dat
0 STEP // PDF 39 s39-p063
1 0 31 -88 10 -0 0 -1 0 1 0 1 0 -0 60594.dat
0 STEP // PDF 41 s41-p064
1 0 -20 -136 -30 0 0 1 0 1 0 -1 0 0 3069.dat
0 STEP // PDF 41 s41-p065
1 0 20 -136 -30 0 0 1 0 1 0 -1 0 0 3069.dat
0 STEP // PDF 41 s41-p066
1 0 0 -136 70 0 0 1 0 1 0 -1 0 0 3069.dat
0 STEP // PDF 41 s41-p067
1 0 -30 -136 20 1 0 0 0 1 0 -0 0 1 41740.dat
0 STEP // PDF 41 s41-p068
1 0 30 -136 20 1 0 0 0 1 0 -0 0 1 41740.dat
0 STEP // PDF 42 s42-p069
1 0 0 -136 70 0 0 1 0 1 0 -1 0 0 3023.dat
0 STEP // PDF 42 s42-p070
1 0 -30 -144 70 0 0 1 0 1 0 -1 0 0 2555.dat
0 STEP // PDF 42 s42-p071
1 0 30 -144 70 0 0 1 0 1 0 -1 0 0 2555.dat
0 STEP // PDF 43 s43-p072
1 0 0 -144 50 0 0 1 0 1 0 -1 0 0 3023.dat
0 STEP // PDF 43 s43-p073
1 0 0 -152 50 0 0 1 0 1 0 -1 0 0 93273.dat
0 STEP // PDF 44 s44-p074
1 0 -30 -136 56 0 0 1 0 1 0 -1 0 0 36840.dat
0 STEP // PDF 44 s44-p075
1 0 30 -136 56 -0 0 -1 0 1 0 1 0 -0 36840.dat
0 STEP // PDF 45 s45-p076
1 46 -36 -112 56 1 0 0 0 1 0 -0 0 1 4589.dat
0 STEP // PDF 45 s45-p077
1 0 -36 -112 56 1 0 0 0 1 0 -0 0 1 37776.dat
0 STEP // PDF 45 s45-p078
1 46 36 -112 56 1 0 0 0 1 0 -0 0 1 4589.dat
0 STEP // PDF 45 s45-p079
1 0 36 -112 56 1 0 0 0 1 0 -0 0 1 37776.dat
0 STEP // PDF 47 s47-p080
1 0 0 -160 20 1 0 0 0 1 0 -0 0 1 3032.dat
0 STEP // PDF 48 s48-p081
1 15 0 8 360 0 0 1 0 1 0 -1 0 0 3004.dat
0 STEP // PDF 48 s48-p082
1 15 0 32 390 -1 0 0 0 1 0 -0 0 -1 4493c01.dat
